<svg width="305px" height="154px" viewBox="0 0 305 154" version="1.1" xmlns="http://www.w3.org/2000/svg"
    xmlns:xlink="http://www.w3.org/1999/xlink">
    <g id="Page-1" stroke="none" stroke-width="1" fill="none" fill-rule="evenodd">
        <g id="Artboard" transform="translate(-147.000000, -86.000000)" fill-rule="nonzero">
            <linearGradient id="linearGradient-1">
                <stop offset="0%" stop-color="#7E5EF2" />
                <stop offset="100%" stop-color="#E09BED" />
            </linearGradient>
            <path
                d="M192.312,158 L216.216,90.608 L198.84,90.608 L182.04,141.488 L165.336,90.608 L147.864,90.608 L171.768,158 L192.312,158 Z M239.448,158 L239.448,86.96 L223.032,86.96 L223.032,158 L239.448,158 Z M275.16,158.768 C279.512,158.768 283.448,157.968 286.968,156.368 C290.488,154.768 293.416,152.56 295.752,149.744 C298.088,146.928 299.704,143.76 300.6,140.24 L300.6,140.24 L283.128,140.24 C281.528,143.696 278.68,145.424 274.584,145.424 C271.832,145.424 269.512,144.544 267.624,142.784 C265.736,141.024 264.664,138.48 264.408,135.152 L264.408,135.152 L301.56,135.152 C301.752,133.488 301.848,131.888 301.848,130.352 C301.848,124.976 300.712,120.272 298.44,116.24 C296.168,112.208 293.016,109.104 288.984,106.928 C284.952,104.752 280.344,103.664 275.16,103.664 C269.848,103.664 265.144,104.784 261.048,107.024 C256.952,109.264 253.768,112.464 251.496,116.624 C249.224,120.784 248.088,125.648 248.088,131.216 C248.088,136.784 249.24,141.648 251.544,145.808 C253.848,149.968 257.048,153.168 261.144,155.408 C265.24,157.648 269.912,158.768 275.16,158.768 Z M285.048,126.032 L264.504,126.032 C264.952,123.088 266.12,120.816 268.008,119.216 C269.896,117.616 272.216,116.816 274.968,116.816 C277.848,116.816 280.248,117.648 282.168,119.312 C284.088,120.976 285.048,123.216 285.048,126.032 L285.048,126.032 Z M326.904,183.536 L326.904,150.512 C328.504,152.944 330.728,154.928 333.576,156.464 C336.424,158 339.704,158.768 343.416,158.768 C347.832,158.768 351.832,157.632 355.416,155.36 C359,153.088 361.832,149.856 363.912,145.664 C365.992,141.472 367.032,136.624 367.032,131.12 C367.032,125.616 365.992,120.784 363.912,116.624 C361.832,112.464 359,109.264 355.416,107.024 C351.832,104.784 347.832,103.664 343.416,103.664 C339.64,103.664 336.344,104.432 333.528,105.968 C330.712,107.504 328.504,109.52 326.904,112.016 L326.904,112.016 L326.904,104.432 L310.488,104.432 L310.488,183.536 L326.904,183.536 Z M338.52,144.464 C335.256,144.464 332.488,143.28 330.216,140.912 C327.944,138.544 326.808,135.312 326.808,131.216 C326.808,127.12 327.944,123.888 330.216,121.52 C332.488,119.152 335.256,117.968 338.52,117.968 C341.848,117.968 344.648,119.136 346.92,121.472 C349.192,123.808 350.328,127.024 350.328,131.12 C350.328,135.216 349.176,138.464 346.872,140.864 C344.568,143.264 341.784,144.464 338.52,144.464 Z M400.056,158.768 C405.304,158.768 410.056,157.648 414.312,155.408 C418.568,153.168 421.928,149.952 424.392,145.76 C426.856,141.568 428.088,136.72 428.088,131.216 C428.088,125.712 426.872,120.864 424.44,116.672 C422.008,112.48 418.68,109.264 414.456,107.024 C410.232,104.784 405.496,103.664 400.248,103.664 C395,103.664 390.264,104.784 386.04,107.024 C381.816,109.264 378.488,112.48 376.056,116.672 C373.624,120.864 372.408,125.712 372.408,131.216 C372.408,136.784 373.608,141.648 376.008,145.808 C378.408,149.968 381.704,153.168 385.896,155.408 C390.088,157.648 394.808,158.768 400.056,158.768 Z M400.056,144.56 C396.92,144.56 394.312,143.408 392.232,141.104 C390.152,138.8 389.112,135.504 389.112,131.216 C389.112,126.864 390.168,123.552 392.28,121.28 C394.392,119.008 397.048,117.872 400.248,117.872 C403.384,117.872 406.024,119.024 408.168,121.328 C410.312,123.632 411.384,126.928 411.384,131.216 C411.384,135.504 410.28,138.8 408.072,141.104 C405.864,143.408 403.192,144.56 400.056,144.56 Z"
                id="Vlepo" fill="url(#linearGradient-1)"></path>
            <path
                d="M152.592,233 L152.592,225.728 C152.592,224.832 152.824,224.136 153.288,223.64 C153.752,223.144 154.376,222.896 155.16,222.896 C155.944,222.896 156.568,223.144 157.032,223.64 C157.496,224.136 157.728,224.832 157.728,225.728 L157.728,225.728 L157.728,233 L161.808,233 L161.808,225.176 C161.808,223.4 161.34,222.004 160.404,220.988 C159.468,219.972 158.216,219.464 156.648,219.464 C155.768,219.464 154.976,219.636 154.272,219.98 C153.568,220.324 153.008,220.792 152.592,221.384 L152.592,221.384 L152.592,219.608 L148.488,219.608 L148.488,233 L152.592,233 Z M170.616,233.192 C171.704,233.192 172.688,232.992 173.568,232.592 C174.448,232.192 175.18,231.64 175.764,230.936 C176.348,230.232 176.752,229.44 176.976,228.56 L176.976,228.56 L172.608,228.56 C172.208,229.424 171.496,229.856 170.472,229.856 C169.784,229.856 169.204,229.636 168.732,229.196 C168.26,228.756 167.992,228.12 167.928,227.288 L167.928,227.288 L177.216,227.288 C177.264,226.872 177.288,226.472 177.288,226.088 C177.288,224.744 177.004,223.568 176.436,222.56 C175.868,221.552 175.08,220.776 174.072,220.232 C173.064,219.688 171.912,219.416 170.616,219.416 C169.288,219.416 168.112,219.696 167.088,220.256 C166.064,220.816 165.268,221.616 164.7,222.656 C164.132,223.696 163.848,224.912 163.848,226.304 C163.848,227.696 164.136,228.912 164.712,229.952 C165.288,230.992 166.088,231.792 167.112,232.352 C168.136,232.912 169.304,233.192 170.616,233.192 Z M173.088,225.008 L167.952,225.008 C168.064,224.272 168.356,223.704 168.828,223.304 C169.3,222.904 169.88,222.704 170.568,222.704 C171.288,222.704 171.888,222.912 172.368,223.328 C172.848,223.744 173.088,224.304 173.088,225.008 L173.088,225.008 Z M182.64,233 L184.8,229.28 L187.368,233 L191.976,233 L187.368,226.352 L191.856,219.608 L187.416,219.608 L185.256,223.304 L182.688,219.608 L178.08,219.608 L182.616,226.16 L178.2,233 L182.64,233 Z M201.024,233 L201.024,229.52 L199.56,229.52 C199.112,229.52 198.792,229.432 198.6,229.256 C198.408,229.08 198.312,228.792 198.312,228.392 L198.312,228.392 L198.312,223.016 L201,223.016 L201,219.608 L198.312,219.608 L198.312,216.344 L194.208,216.344 L194.208,219.608 L192.576,219.608 L192.576,223.016 L194.208,223.016 L194.208,228.344 C194.208,229.992 194.624,231.18 195.456,231.908 C196.288,232.636 197.448,233 198.936,233 L198.936,233 L201.024,233 Z M213.624,226.28 L213.624,222.872 L203.064,222.872 L203.064,226.28 L213.624,226.28 Z M223.848,239.6 C225.336,239.6 226.58,239.304 227.58,238.712 C228.58,238.12 229.324,237.324 229.812,236.324 C230.3,235.324 230.544,234.208 230.544,232.976 L230.544,232.976 L230.544,219.608 L226.44,219.608 L226.44,221.504 C226.056,220.88 225.508,220.376 224.796,219.992 C224.084,219.608 223.256,219.416 222.312,219.416 C221.208,219.416 220.208,219.696 219.312,220.256 C218.416,220.816 217.708,221.616 217.188,222.656 C216.668,223.696 216.408,224.904 216.408,226.28 C216.408,227.656 216.668,228.868 217.188,229.916 C217.708,230.964 218.416,231.772 219.312,232.34 C220.208,232.908 221.208,233.192 222.312,233.192 C223.256,233.192 224.08,232.996 224.784,232.604 C225.488,232.212 226.04,231.704 226.44,231.08 L226.44,231.08 L226.44,232.976 C226.44,234.048 226.188,234.828 225.684,235.316 C225.18,235.804 224.504,236.048 223.656,236.048 C222.952,236.048 222.36,235.9 221.88,235.604 C221.4,235.308 221.096,234.904 220.968,234.392 L220.968,234.392 L216.912,234.392 C217.088,235.992 217.792,237.26 219.024,238.196 C220.256,239.132 221.864,239.6 223.848,239.6 Z M223.512,229.616 C222.696,229.616 222.004,229.316 221.436,228.716 C220.868,228.116 220.584,227.304 220.584,226.28 C220.584,225.256 220.868,224.452 221.436,223.868 C222.004,223.284 222.696,222.992 223.512,222.992 C224.328,222.992 225.02,223.288 225.588,223.88 C226.156,224.472 226.44,225.28 226.44,226.304 C226.44,227.328 226.156,228.136 225.588,228.728 C225.02,229.32 224.328,229.616 223.512,229.616 Z M239.472,233.192 C240.56,233.192 241.544,232.992 242.424,232.592 C243.304,232.192 244.036,231.64 244.62,230.936 C245.204,230.232 245.608,229.44 245.832,228.56 L245.832,228.56 L241.464,228.56 C241.064,229.424 240.352,229.856 239.328,229.856 C238.64,229.856 238.06,229.636 237.588,229.196 C237.116,228.756 236.848,228.12 236.784,227.288 L236.784,227.288 L246.072,227.288 C246.12,226.872 246.144,226.472 246.144,226.088 C246.144,224.744 245.86,223.568 245.292,222.56 C244.724,221.552 243.936,220.776 242.928,220.232 C241.92,219.688 240.768,219.416 239.472,219.416 C238.144,219.416 236.968,219.696 235.944,220.256 C234.92,220.816 234.124,221.616 233.556,222.656 C232.988,223.696 232.704,224.912 232.704,226.304 C232.704,227.696 232.992,228.912 233.568,229.952 C234.144,230.992 234.944,231.792 235.968,232.352 C236.992,232.912 238.16,233.192 239.472,233.192 Z M241.944,225.008 L236.808,225.008 C236.92,224.272 237.212,223.704 237.684,223.304 C238.156,222.904 238.736,222.704 239.424,222.704 C240.144,222.704 240.744,222.912 241.224,223.328 C241.704,223.744 241.944,224.304 241.944,225.008 L241.944,225.008 Z M252.408,233 L252.408,225.728 C252.408,224.832 252.64,224.136 253.104,223.64 C253.568,223.144 254.192,222.896 254.976,222.896 C255.76,222.896 256.384,223.144 256.848,223.64 C257.312,224.136 257.544,224.832 257.544,225.728 L257.544,225.728 L257.544,233 L261.624,233 L261.624,225.176 C261.624,223.4 261.156,222.004 260.22,220.988 C259.284,219.972 258.032,219.464 256.464,219.464 C255.584,219.464 254.792,219.636 254.088,219.98 C253.384,220.324 252.824,220.792 252.408,221.384 L252.408,221.384 L252.408,219.608 L248.304,219.608 L248.304,233 L252.408,233 Z M277.8,233.192 C278.904,233.192 279.904,232.908 280.8,232.34 C281.696,231.772 282.404,230.964 282.924,229.916 C283.444,228.868 283.704,227.656 283.704,226.28 C283.704,224.904 283.444,223.696 282.924,222.656 C282.404,221.616 281.696,220.816 280.8,220.256 C279.904,219.696 278.904,219.416 277.8,219.416 C276.872,219.416 276.048,219.608 275.328,219.992 C274.608,220.376 274.056,220.88 273.672,221.504 L273.672,221.504 L273.672,215.24 L269.568,215.24 L269.568,233 L273.672,233 L273.672,231.128 C274.072,231.752 274.624,232.252 275.328,232.628 C276.032,233.004 276.856,233.192 277.8,233.192 Z M276.576,229.616 C275.76,229.616 275.068,229.32 274.5,228.728 C273.932,228.136 273.648,227.328 273.648,226.304 C273.648,225.28 273.932,224.472 274.5,223.88 C275.068,223.288 275.76,222.992 276.576,222.992 C277.408,222.992 278.108,223.284 278.676,223.868 C279.244,224.452 279.528,225.256 279.528,226.28 C279.528,227.304 279.24,228.116 278.664,228.716 C278.088,229.316 277.392,229.616 276.576,229.616 Z M289.968,233 L289.968,215.24 L285.864,215.24 L285.864,233 L289.968,233 Z M299.04,233.192 C300.352,233.192 301.54,232.912 302.604,232.352 C303.668,231.792 304.508,230.988 305.124,229.94 C305.74,228.892 306.048,227.68 306.048,226.304 C306.048,224.928 305.744,223.716 305.136,222.668 C304.528,221.62 303.696,220.816 302.64,220.256 C301.584,219.696 300.4,219.416 299.088,219.416 C297.776,219.416 296.592,219.696 295.536,220.256 C294.48,220.816 293.648,221.62 293.04,222.668 C292.432,223.716 292.128,224.928 292.128,226.304 C292.128,227.696 292.428,228.912 293.028,229.952 C293.628,230.992 294.452,231.792 295.5,232.352 C296.548,232.912 297.728,233.192 299.04,233.192 Z M299.04,229.64 C298.256,229.64 297.604,229.352 297.084,228.776 C296.564,228.2 296.304,227.376 296.304,226.304 C296.304,225.216 296.568,224.388 297.096,223.82 C297.624,223.252 298.288,222.968 299.088,222.968 C299.872,222.968 300.532,223.256 301.068,223.832 C301.604,224.408 301.872,225.232 301.872,226.304 C301.872,227.376 301.596,228.2 301.044,228.776 C300.492,229.352 299.824,229.64 299.04,229.64 Z M314.856,239.6 C316.344,239.6 317.588,239.304 318.588,238.712 C319.588,238.12 320.332,237.324 320.82,236.324 C321.308,235.324 321.552,234.208 321.552,232.976 L321.552,232.976 L321.552,219.608 L317.448,219.608 L317.448,221.504 C317.064,220.88 316.516,220.376 315.804,219.992 C315.092,219.608 314.264,219.416 313.32,219.416 C312.216,219.416 311.216,219.696 310.32,220.256 C309.424,220.816 308.716,221.616 308.196,222.656 C307.676,223.696 307.416,224.904 307.416,226.28 C307.416,227.656 307.676,228.868 308.196,229.916 C308.716,230.964 309.424,231.772 310.32,232.34 C311.216,232.908 312.216,233.192 313.32,233.192 C314.264,233.192 315.088,232.996 315.792,232.604 C316.496,232.212 317.048,231.704 317.448,231.08 L317.448,231.08 L317.448,232.976 C317.448,234.048 317.196,234.828 316.692,235.316 C316.188,235.804 315.512,236.048 314.664,236.048 C313.96,236.048 313.368,235.9 312.888,235.604 C312.408,235.308 312.104,234.904 311.976,234.392 L311.976,234.392 L307.92,234.392 C308.096,235.992 308.8,237.26 310.032,238.196 C311.264,239.132 312.872,239.6 314.856,239.6 Z M314.52,229.616 C313.704,229.616 313.012,229.316 312.444,228.716 C311.876,228.116 311.592,227.304 311.592,226.28 C311.592,225.256 311.876,224.452 312.444,223.868 C313.012,223.284 313.704,222.992 314.52,222.992 C315.336,222.992 316.028,223.288 316.596,223.88 C317.164,224.472 317.448,225.28 317.448,226.304 C317.448,227.328 317.164,228.136 316.596,228.728 C316.028,229.32 315.336,229.616 314.52,229.616 Z M336.24,239.6 C337.728,239.6 338.972,239.304 339.972,238.712 C340.972,238.12 341.716,237.324 342.204,236.324 C342.692,235.324 342.936,234.208 342.936,232.976 L342.936,232.976 L342.936,219.608 L338.832,219.608 L338.832,221.504 C338.448,220.88 337.9,220.376 337.188,219.992 C336.476,219.608 335.648,219.416 334.704,219.416 C333.6,219.416 332.6,219.696 331.704,220.256 C330.808,220.816 330.1,221.616 329.58,222.656 C329.06,223.696 328.8,224.904 328.8,226.28 C328.8,227.656 329.06,228.868 329.58,229.916 C330.1,230.964 330.808,231.772 331.704,232.34 C332.6,232.908 333.6,233.192 334.704,233.192 C335.648,233.192 336.472,232.996 337.176,232.604 C337.88,232.212 338.432,231.704 338.832,231.08 L338.832,231.08 L338.832,232.976 C338.832,234.048 338.58,234.828 338.076,235.316 C337.572,235.804 336.896,236.048 336.048,236.048 C335.344,236.048 334.752,235.9 334.272,235.604 C333.792,235.308 333.488,234.904 333.36,234.392 L333.36,234.392 L329.304,234.392 C329.48,235.992 330.184,237.26 331.416,238.196 C332.648,239.132 334.256,239.6 336.24,239.6 Z M335.904,229.616 C335.088,229.616 334.396,229.316 333.828,228.716 C333.26,228.116 332.976,227.304 332.976,226.28 C332.976,225.256 333.26,224.452 333.828,223.868 C334.396,223.284 335.088,222.992 335.904,222.992 C336.72,222.992 337.412,223.288 337.98,223.88 C338.548,224.472 338.832,225.28 338.832,226.304 C338.832,227.328 338.548,228.136 337.98,228.728 C337.412,229.32 336.72,229.616 335.904,229.616 Z M351.864,233.192 C352.952,233.192 353.936,232.992 354.816,232.592 C355.696,232.192 356.428,231.64 357.012,230.936 C357.596,230.232 358,229.44 358.224,228.56 L358.224,228.56 L353.856,228.56 C353.456,229.424 352.744,229.856 351.72,229.856 C351.032,229.856 350.452,229.636 349.98,229.196 C349.508,228.756 349.24,228.12 349.176,227.288 L349.176,227.288 L358.464,227.288 C358.512,226.872 358.536,226.472 358.536,226.088 C358.536,224.744 358.252,223.568 357.684,222.56 C357.116,221.552 356.328,220.776 355.32,220.232 C354.312,219.688 353.16,219.416 351.864,219.416 C350.536,219.416 349.36,219.696 348.336,220.256 C347.312,220.816 346.516,221.616 345.948,222.656 C345.38,223.696 345.096,224.912 345.096,226.304 C345.096,227.696 345.384,228.912 345.96,229.952 C346.536,230.992 347.336,231.792 348.36,232.352 C349.384,232.912 350.552,233.192 351.864,233.192 Z M354.336,225.008 L349.2,225.008 C349.312,224.272 349.604,223.704 350.076,223.304 C350.548,222.904 351.128,222.704 351.816,222.704 C352.536,222.704 353.136,222.912 353.616,223.328 C354.096,223.744 354.336,224.304 354.336,225.008 L354.336,225.008 Z M364.8,233 L364.8,225.728 C364.8,224.832 365.032,224.136 365.496,223.64 C365.96,223.144 366.584,222.896 367.368,222.896 C368.152,222.896 368.776,223.144 369.24,223.64 C369.704,224.136 369.936,224.832 369.936,225.728 L369.936,225.728 L369.936,233 L374.016,233 L374.016,225.176 C374.016,223.4 373.548,222.004 372.612,220.988 C371.676,219.972 370.424,219.464 368.856,219.464 C367.976,219.464 367.184,219.636 366.48,219.98 C365.776,220.324 365.216,220.792 364.8,221.384 L364.8,221.384 L364.8,219.608 L360.696,219.608 L360.696,233 L364.8,233 Z M382.824,233.192 C383.912,233.192 384.896,232.992 385.776,232.592 C386.656,232.192 387.388,231.64 387.972,230.936 C388.556,230.232 388.96,229.44 389.184,228.56 L389.184,228.56 L384.816,228.56 C384.416,229.424 383.704,229.856 382.68,229.856 C381.992,229.856 381.412,229.636 380.94,229.196 C380.468,228.756 380.2,228.12 380.136,227.288 L380.136,227.288 L389.424,227.288 C389.472,226.872 389.496,226.472 389.496,226.088 C389.496,224.744 389.212,223.568 388.644,222.56 C388.076,221.552 387.288,220.776 386.28,220.232 C385.272,219.688 384.12,219.416 382.824,219.416 C381.496,219.416 380.32,219.696 379.296,220.256 C378.272,220.816 377.476,221.616 376.908,222.656 C376.34,223.696 376.056,224.912 376.056,226.304 C376.056,227.696 376.344,228.912 376.92,229.952 C377.496,230.992 378.296,231.792 379.32,232.352 C380.344,232.912 381.512,233.192 382.824,233.192 Z M385.296,225.008 L380.16,225.008 C380.272,224.272 380.564,223.704 381.036,223.304 C381.508,222.904 382.088,222.704 382.776,222.704 C383.496,222.704 384.096,222.912 384.576,223.328 C385.056,223.744 385.296,224.304 385.296,225.008 L385.296,225.008 Z M395.76,233 L395.76,226.784 C395.76,225.68 396.016,224.908 396.528,224.468 C397.04,224.028 397.808,223.808 398.832,223.808 L398.832,223.808 L399.96,223.808 L399.96,219.464 C399.08,219.464 398.28,219.676 397.56,220.1 C396.84,220.524 396.24,221.104 395.76,221.84 L395.76,221.84 L395.76,219.608 L391.656,219.608 L391.656,233 L395.76,233 Z M406.992,233.192 C407.936,233.192 408.764,233 409.476,232.616 C410.188,232.232 410.744,231.728 411.144,231.104 L411.144,231.104 L411.144,233 L415.248,233 L415.248,219.608 L411.144,219.608 L411.144,221.504 C410.76,220.88 410.212,220.376 409.5,219.992 C408.788,219.608 407.96,219.416 407.016,219.416 C405.912,219.416 404.912,219.696 404.016,220.256 C403.12,220.816 402.412,221.616 401.892,222.656 C401.372,223.696 401.112,224.904 401.112,226.28 C401.112,227.656 401.372,228.868 401.892,229.916 C402.412,230.964 403.12,231.772 404.016,232.34 C404.912,232.908 405.904,233.192 406.992,233.192 Z M408.216,229.616 C407.4,229.616 406.708,229.316 406.14,228.716 C405.572,228.116 405.288,227.304 405.288,226.28 C405.288,225.256 405.572,224.452 406.14,223.868 C406.708,223.284 407.4,222.992 408.216,222.992 C409.032,222.992 409.724,223.288 410.292,223.88 C410.86,224.472 411.144,225.28 411.144,226.304 C411.144,227.328 410.86,228.136 410.292,228.728 C409.724,229.32 409.032,229.616 408.216,229.616 Z M425.688,233 L425.688,229.52 L424.224,229.52 C423.776,229.52 423.456,229.432 423.264,229.256 C423.072,229.08 422.976,228.792 422.976,228.392 L422.976,228.392 L422.976,223.016 L425.664,223.016 L425.664,219.608 L422.976,219.608 L422.976,216.344 L418.872,216.344 L418.872,219.608 L417.24,219.608 L417.24,223.016 L418.872,223.016 L418.872,228.344 C418.872,229.992 419.288,231.18 420.12,231.908 C420.952,232.636 422.112,233 423.6,233 L423.6,233 L425.688,233 Z M434.064,233.192 C435.376,233.192 436.564,232.912 437.628,232.352 C438.692,231.792 439.532,230.988 440.148,229.94 C440.764,228.892 441.072,227.68 441.072,226.304 C441.072,224.928 440.768,223.716 440.16,222.668 C439.552,221.62 438.72,220.816 437.664,220.256 C436.608,219.696 435.424,219.416 434.112,219.416 C432.8,219.416 431.616,219.696 430.56,220.256 C429.504,220.816 428.672,221.62 428.064,222.668 C427.456,223.716 427.152,224.928 427.152,226.304 C427.152,227.696 427.452,228.912 428.052,229.952 C428.652,230.992 429.476,231.792 430.524,232.352 C431.572,232.912 432.752,233.192 434.064,233.192 Z M434.064,229.64 C433.28,229.64 432.628,229.352 432.108,228.776 C431.588,228.2 431.328,227.376 431.328,226.304 C431.328,225.216 431.592,224.388 432.12,223.82 C432.648,223.252 433.312,222.968 434.112,222.968 C434.896,222.968 435.556,223.256 436.092,223.832 C436.628,224.408 436.896,225.232 436.896,226.304 C436.896,227.376 436.62,228.2 436.068,228.776 C435.516,229.352 434.848,229.64 434.064,229.64 Z M447.36,233 L447.36,226.784 C447.36,225.68 447.616,224.908 448.128,224.468 C448.64,224.028 449.408,223.808 450.432,223.808 L450.432,223.808 L451.56,223.808 L451.56,219.464 C450.68,219.464 449.88,219.676 449.16,220.1 C448.44,220.524 447.84,221.104 447.36,221.84 L447.36,221.84 L447.36,219.608 L443.256,219.608 L443.256,233 L447.36,233 Z"
                id="next-genbloggenerator" fill="#8A72E0"></path>
        </g>
    </g>
</svg>